{"title":"Dragon.Ball.Super.S04E31.DUBBED.HDTV.x264-CRiMSON","magnet":"magnet:?xt=urn:btih:e8b68005de24c918daab3766cf9604e968b96161&dn=Dragon.Ball.Super.S04E31.DUBBED.HDTV.x264-CRiMSON&tr=udp%3A%2F%2Ftracker.leechers-paradise.org%3A6969&tr=udp%3A%2F%2Fzer0day.ch%3A1337&tr=udp%3A%2F%2Fopen.demonii.com%3A1337&tr=udp%3A%2F%2Ftracker.coppersurfer.tk%3A6969&tr=udp%3A%2F%2Fexodus.desync.com%3A6969","uploader":"mocioni","categoryP":"video","categoryS":"tv_shows","size":"148786667","seeders":"0","leechers":"0","description":" <a href=\"https://www.imdb.com/title/tt4644488/\" rel=\"nofollow\" target=\"_NEW\">https://www.imdb.com/title/tt4644488/</a>\r\n\r\nVideo\r\nID : 2\r\nFormat : AVC\r\nFormat/Info : Advanced Video Codec\r\nFormat profile : High@L3.1\r\nFormat settings : CABAC / 5 Ref Frames\r\nFormat settings, CABAC : Yes\r\nFormat settings, RefFrames : 5 frames\r\nCodec ID : V_MPEG4/ISO/AVC\r\nDuration : 22 min 4 s\r\nBit rate : 780 kb/s\r\nWidth : 720 pixels\r\nHeight : 404 pixels\r\nDisplay aspect ratio : 16:9\r\nFrame rate mode : Constant\r\nFrame rate : 23.976 (24000/1001) FPS\r\nColor space : YUV\r\nChroma subsampling : 4:2:0\r\nBit depth : 8 bits\r\nScan type : Progressive\r\nBits/(Pixel*Frame) : 0.112\r\nStream size : 123 MiB (87%)\r\nWriting library : x264 core 155 r2901 7d0ff22\r\nEncoding settings : cabac=1 / ref=5 / deblock=1:0:0 / analyse=0x3:0x113 / me=umh / subme=8 / psy=1 / psy_rd=1.00:0.15 / mixed_ref=1 / me_range=16 / chroma_me=1 / trellis=2 / 8x8dct=1 / cqm=0 / deadzone=21,11 / fast_pskip=1 / chroma_qp_offset=-3 / threads=12 / lookahead_threads=2 / sliced_threads=0 / nr=0 / decimate=1 / interlaced=0 / bluray_compat=0 / constrained_intra=0 / bframes=3 / b_pyramid=2 / b_adapt=2 / b_bias=0 / direct=3 / weightb=1 / open_gop=0 / weightp=2 / keyint=240 / keyint_min=23 / scenecut=40 / intra_refresh=0 / rc_lookahead=50 / rc=crf / mbtree=1 / crf=19.0 / qcomp=0.60 / qpmin=0 / qpmax=69 / qpstep=4 / vbv_maxrate=17500 / vbv_bufsize=17500 / crf_max=0.0 / nal_hrd=none / filler=0 / ip_ratio=1.40 / aq=1:1.00\r\nLanguage : English\r\nDefault : Yes\r\nForced : No\r\nColor range : Limited\r\nMatrix coefficients : BT.709\r\n\r\nAudio\r\nID : 1\r\nFormat : AAC\r\nFormat/Info : Advanced Audio Codec\r\nFormat profile : LC\r\nCodec ID : A_AAC-2\r\nDuration : 22 min 4 s\r\nBit rate : 116 kb/s\r\nChannel(s) : 2 channels\r\nChannel positions : Front: L R\r\nSampling rate : 48.0 kHz\r\nFrame rate : 46.875 FPS (1024 SPF)\r\nCompression mode : Lossy\r\nDelay relative to video : 9 ms\r\nStream size : 18.3 MiB (13%)\r\nDefault : Yes\r\nForced : No\r\n\r\nText\r\nID : 3\r\nFormat : UTF-8\r\nCodec ID : S_TEXT/UTF8\r\nCodec ID/Info : UTF-8 Plain Text\r\nDuration : 21 min 51 s\r\nBit rate : 133 b/s\r\nCount of elements : 505\r\nStream size : 21.3 KiB (0%)\r\nLanguage : English\r\nDefault : No\r\nForced : No\r\n\r\nMenu\r\n00:00:00.054 : en:00:00:00.054","last_updated":"2018-08-26T12:00:34.581Z","parsed":{"xt":"urn:btih:e8b68005de24c918daab3766cf9604e968b96161","dn":"Dragon.Ball.Super.S04E31.DUBBED.HDTV.x264-CRiMSON","tr":["udp://exodus.desync.com:6969","udp://open.demonii.com:1337","udp://tracker.coppersurfer.tk:6969","udp://tracker.leechers-paradise.org:6969","udp://zer0day.ch:1337"],"infoHash":"e8b68005de24c918daab3766cf9604e968b96161","infoHashBuffer":{"type":"Buffer","data":[232,182,128,5,222,36,201,24,218,171,55,102,207,150,4,233,104,185,97,97]},"name":"Dragon.Ball.Super.S04E31.DUBBED.HDTV.x264-CRiMSON","announce":["udp://exodus.desync.com:6969","udp://open.demonii.com:1337","udp://tracker.coppersurfer.tk:6969","udp://tracker.leechers-paradise.org:6969","udp://zer0day.ch:1337"],"urlList":[]}}